<svg class="EGtBw empty" version="1.1"
    xmlns="http://www.w3.org/2000/svg" width="1024" height="1024" viewBox="0 0 1024 1024">
    <path fill="rgba(193,193,193,1)" d="M512.004 140.785l90.56 177.446c13.018 25.511 37.449 43.261 65.732 47.759l196.745 31.291-140.774 140.958c-20.241 20.267-29.572 48.986-25.109 77.278l31.036 196.783-177.562-90.33c-25.527-12.983-55.723-12.983-81.25 0l-177.565 90.33 31.039-196.783c4.462-28.292-4.87-57.011-25.108-77.278l-140.778-140.958 196.745-31.291c28.285-4.498 52.716-22.248 65.735-47.759l90.555-177.446zM534.81 44.672c-9.502-18.618-36.105-18.618-45.606 0l-124.76 244.468c-3.72 7.289-10.7 12.36-18.781 13.645l-271.056 43.11c-20.643 3.283-28.863 28.583-14.093 43.372l193.95 194.199c5.783 5.79 8.449 13.995 7.174 22.080l-42.761 271.108c-3.257 20.646 18.265 36.284 36.895 26.807l244.629-124.446c7.292-3.712 15.919-3.712 23.215 0l244.629 124.446c18.628 9.476 40.149-6.161 36.894-26.807l-42.761-271.108c-1.276-8.085 1.391-16.29 7.172-22.080l193.95-194.199c14.771-14.79 6.549-40.090-14.093-43.372l-271.057-43.11c-8.081-1.285-15.061-6.356-18.782-13.645l-124.757-244.468z"></path>
</svg>