<svg xmlns="http://www.w3.org/2000/svg" data-name="Layer 1" viewBox="0 0 128 128"><path fill="#ff9647" d="M127.95,86.81c-1.73-10.93-9.55-17.2-21.45-17.2q-.675,0-1.32.03a45.04526,45.04526,0,0,0-4.74-23.35l-2.86-5.65a19.58105,19.58105,0,0,0,3.05-13.26C99.6,18,93.91,14.79,93.27,14.45A3.97988,3.97988,0,0,0,91.42,14a20.87086,20.87086,0,0,0-10.5199,3.17578A10.99433,10.99433,0,0,1,79,39c-.24274,0-.48022-.02087-.71906-.03644.43286.67169.83441,1.23285,1.149,1.64642l4.73,19.02a20.07922,20.07922,0,0,1-2.8,10.96L74.25,82.65H62.91L56.92,65.5H62a4,4,0,0,0,4-4v-3a8,8,0,0,0-8-8H42v-24a6,6,0,0,0-6-6H6a6,6,0,0,0-6,6v29a2,2,0,0,0,2,2H40a2,2,0,0,0,2-2v-1H58a4,4,0,0,1,4,4v3H0a3.99891,3.99891,0,0,0,4,4H7.85c-.52,3.39-3.96,6.34-5.83,7.5A4.00444,4.00444,0,0,0,.1,77.37c0,.01.01.01.01.02A1.73822,1.73822,0,0,0,0,78V90.6a13.4351,13.4351,0,0,0,9.71,12.88,14.974,14.974,0,0,0,28.42.52H94.87a14.993,14.993,0,0,0,28.87756-2.24469A14.83,14.83,0,0,0,121.51,90.79c.59.19.95.33.96.34a4.02244,4.02244,0,0,0,4.01-.56A3.99586,3.99586,0,0,0,127.95,86.81ZM25,33a2.00591,2.00591,0,0,1-2,2H19a2.00591,2.00591,0,0,1-2-2V25h8Zm-1,77a10.99868,10.99868,0,0,1-9.78-6H33.78A10.99868,10.99868,0,0,1,24,110ZM13.38,100A9.40412,9.40412,0,0,1,4,90.6L5,80.35a57.91317,57.91317,0,0,1,11.84-1.36c7.50995,0,13.23,2.02,17.00995,6,5.67,5.97,5.39,14.72,5.38,14.8,0,.07.01.14.01.21ZM109,110a10.99868,10.99868,0,0,1-9.78-6h.77a3.98609,3.98609,0,0,0,3.63-2.35l.79,1a6.00024,6.00024,0,1,0,9.4-7.46l-3.92-4.94a11.8683,11.8683,0,0,1,4.37-.73c.11,0,.21.01.31.01A10.99015,10.99015,0,0,1,109,110Z" class="color000000 svgShape"/><path fill="#ff9647" d="M79,35a7,7,0,1,1,7-7A7.00786,7.00786,0,0,1,79,35Zm0-10a3,3,0,1,0,3,3A3.00328,3.00328,0,0,0,79,25Z" class="color000000 svgShape"/></svg>