<svg class="EGtBw" version="1.1"
    xmlns="http://www.w3.org/2000/svg" width="1024" height="1024" viewBox="0 0 1024 1024">
    <path fill="rgba(255,150,71,1)" d="M489.203 44.672c9.502-18.618 36.105-18.618 45.606 0l124.757 244.468c3.721 7.289 10.701 12.36 18.782 13.645l271.057 43.11c20.642 3.283 28.864 28.583 14.093 43.372l-193.95 194.199c-5.781 5.79-8.448 13.995-7.172 22.080l42.761 271.108c3.255 20.646-18.266 36.284-36.894 26.807l-244.629-124.446c-7.296-3.712-15.923-3.712-23.215 0l-244.629 124.446c-18.63 9.476-40.151-6.161-36.895-26.807l42.761-271.108c1.275-8.085-1.391-16.29-7.174-22.080l-193.95-194.199c-14.77-14.789-6.55-40.090 14.093-43.372l271.056-43.11c8.081-1.285 15.061-6.356 18.781-13.645l124.76-244.468z"></path>
</svg>